<?xml version="1.0" standalone="no"?>
<!DOCTYPE svg PUBLIC "-//W3C//DTD SVG 20010904//EN"
 "http://www.w3.org/TR/2001/REC-SVG-20010904/DTD/svg10.dtd">
<svg version="1.0" xmlns="http://www.w3.org/2000/svg"
 width="600.000000pt" height="313.000000pt" viewBox="0 0 600.000000 313.000000"
 preserveAspectRatio="xMidYMid meet">
<g transform="translate(0.000000,313.000000) scale(0.100000,-0.100000)"
fill="#000000" stroke="none">
<path d="M2514 2601 c-17 -5 -76 -28 -130 -53 -128 -59 -161 -69 -253 -77 -70
-5 -76 -8 -79 -29 -2 -15 1 -23 10 -21 75 10 124 -22 114 -75 -11 -57 -129
-451 -138 -463 -5 -6 -52 -37 -106 -69 -246 -146 -399 -272 -467 -385 -44 -71
-70 -171 -61 -232 8 -53 48 -118 86 -141 58 -34 149 -10 163 43 4 15 -2 20
-33 25 -81 13 -126 110 -101 220 33 148 170 283 475 466 37 22 39 22 32 4 -20
-50 -157 -524 -166 -573 -13 -75 0 -128 41 -165 29 -26 37 -28 95 -24 52 3 70
9 101 34 48 38 96 117 124 203 12 36 24 72 27 79 2 7 -5 12 -20 12 -21 0 -26
-7 -37 -52 -28 -112 -85 -198 -130 -198 -52 1 -56 46 -17 186 52 184 185 636
188 638 2 2 31 22 66 45 91 61 250 191 299 244 108 117 147 222 109 296 -29
55 -109 81 -192 62z m145 -47 c27 -23 31 -32 31 -78 0 -31 -8 -67 -19 -89 -24
-48 -92 -137 -105 -137 -5 0 -2 8 6 18 69 77 94 221 50 281 -29 40 -7 43 37 5z
m-60 -20 c57 -72 4 -210 -131 -346 -74 -75 -234 -199 -225 -174 4 9 28 88 53
174 72 243 104 311 168 352 47 30 109 27 135 -6z m-214 -41 c-14 -21 -30 -49
-35 -63 -6 -14 -15 -34 -20 -45 -5 -11 -17 -45 -26 -75 -90 -304 -89 -297 -74
-315 8 -10 9 -15 1 -15 -15 0 -47 -67 -56 -117 -4 -24 -11 -45 -16 -49 -5 -3
-9 -18 -9 -33 0 -15 -5 -32 -12 -39 -7 -7 -9 -12 -5 -12 3 0 2 -12 -4 -27 -6
-16 -17 -48 -24 -73 -23 -82 -57 -205 -60 -221 -2 -8 -10 -32 -19 -53 -9 -21
-21 -75 -28 -121 -12 -83 -12 -85 12 -105 12 -11 32 -20 44 -20 21 -1 21 -1 2
-15 -20 -15 -100 -20 -131 -9 -24 10 -45 58 -45 104 0 41 33 178 51 213 6 10
14 37 18 60 14 66 50 190 61 209 6 10 10 26 10 36 0 11 7 33 15 50 9 17 15 45
13 64 -1 18 6 44 15 58 9 14 20 43 26 65 5 22 28 101 51 175 73 241 76 269 25
312 -20 17 -19 17 10 18 39 0 140 31 190 58 22 12 41 22 42 22 2 0 -8 -17 -22
-37z m-859 -1050 c-39 -78 -51 -153 -36 -210 17 -59 44 -97 88 -123 28 -17 32
-23 22 -35 -29 -35 -116 0 -148 58 -26 50 -20 182 12 245 23 45 72 112 82 112
2 0 -6 -21 -20 -47z"/>
<path d="M2567 2045 c-87 -45 -143 -128 -187 -277 -8 -25 -6 -28 15 -28 19 0
25 8 34 46 16 64 66 159 93 178 29 21 74 21 82 0 3 -9 6 -27 6 -42 0 -25 -67
-232 -155 -477 -76 -211 -72 -315 14 -372 64 -43 167 -25 258 44 79 60 238
317 248 401 2 18 8 39 12 45 20 27 106 278 132 382 7 28 15 53 19 57 4 4 30
10 59 14 l51 6 -9 -43 c-5 -24 -16 -64 -24 -89 -7 -25 -21 -71 -29 -103 -22
-82 -64 -234 -101 -362 -7 -27 -19 -72 -26 -100 -6 -27 -16 -54 -20 -59 -5 -6
-9 -35 -9 -66 0 -63 17 -88 63 -92 37 -3 24 -15 -26 -24 -109 -20 -142 12
-131 129 4 33 12 78 20 100 8 22 14 50 14 63 0 12 5 26 10 29 6 3 10 19 10 35
0 16 4 31 10 35 5 3 6 13 3 21 -9 25 -20 4 -52 -104 -61 -205 -62 -276 -4
-322 49 -39 155 -20 216 38 34 31 78 115 100 187 8 28 18 58 22 68 6 13 2 17
-17 17 -21 0 -26 -7 -36 -50 -32 -139 -106 -226 -162 -190 -28 17 -13 89 104
505 63 226 113 411 112 412 -1 1 -40 -5 -87 -13 l-85 -16 -39 -136 c-86 -309
-244 -630 -357 -726 -65 -56 -134 -60 -157 -10 -14 32 1 101 59 269 23 66 65
185 92 265 38 109 52 164 56 222 l5 77 -36 36 c-31 31 -41 35 -88 35 -30 0
-67 -7 -82 -15z m146 -30 c13 -14 27 -36 29 -49 9 -44 -13 -160 -47 -251 -18
-49 -45 -126 -60 -170 -16 -44 -32 -84 -37 -89 -4 -6 -8 -19 -8 -30 0 -12 -7
-30 -15 -40 -8 -11 -15 -31 -15 -45 0 -21 -7 -51 -28 -111 -17 -50 1 -95 51
-125 l42 -25 -64 0 c-58 0 -65 2 -97 34 -32 32 -34 38 -34 101 0 59 16 132 40
190 5 11 14 36 19 55 5 19 28 87 51 150 100 276 111 334 76 375 -12 14 -28 25
-36 25 -32 1 37 29 71 30 26 0 44 -7 62 -25z"/>
<path d="M3805 2036 c-186 -86 -381 -403 -414 -673 -13 -111 1 -190 46 -251
66 -88 196 -83 302 13 72 65 173 234 190 318 5 23 19 67 31 97 52 128 88 291
77 347 -2 12 -1 21 2 19 13 -9 37 21 50 60 13 40 16 42 63 48 28 4 52 5 55 2
3 -2 0 -19 -6 -38 -6 -18 -20 -69 -30 -113 -34 -135 -61 -239 -68 -255 -8 -19
-51 -185 -59 -225 -3 -16 -10 -38 -15 -47 -16 -29 -23 -228 -10 -276 7 -26 29
-60 56 -88 40 -42 41 -45 17 -39 -41 10 -105 57 -122 90 -8 16 -20 35 -26 41
-23 25 -27 235 -6 269 4 5 7 17 8 25 0 8 4 23 9 33 4 11 3 23 -3 29 -8 8 -17
-11 -33 -63 -31 -101 -32 -235 -3 -299 90 -197 397 -226 569 -54 79 79 115
171 115 293 0 132 -61 222 -152 225 -32 1 -45 -5 -64 -27 -35 -41 -32 -67 9
-67 38 0 89 -29 111 -63 9 -13 20 -43 24 -68 23 -129 -54 -277 -175 -334 -48
-23 -66 -27 -132 -23 -61 2 -83 8 -110 27 -53 38 -76 100 -74 201 1 95 9 128
132 584 45 164 80 300 78 302 -2 3 -26 0 -53 -6 -27 -5 -65 -11 -84 -13 -33
-3 -35 -6 -45 -54 -13 -67 -21 -73 -29 -22 -4 28 -17 51 -37 70 -27 25 -39 29
-88 29 -38 0 -72 -8 -106 -24z m45 -19 c-32 -15 -130 -115 -130 -133 0 -8 -4
-14 -8 -14 -9 0 -89 -160 -111 -220 -15 -42 -52 -177 -56 -205 -19 -122 -21
-158 -15 -206 4 -31 13 -66 19 -77 15 -29 60 -62 85 -63 44 -1 -17 -18 -69
-18 -61 -1 -97 21 -128 75 -18 33 -22 55 -22 139 0 55 6 118 12 140 39 131 59
190 69 200 6 6 15 22 19 35 8 26 44 91 56 100 3 3 13 19 22 35 38 76 222 227
271 224 6 0 0 -6 -14 -12z m111 -17 c73 -40 64 -232 -22 -448 -73 -183 -152
-316 -230 -386 -33 -31 -47 -37 -77 -34 -29 2 -40 10 -56 38 -47 79 -9 341 78
540 94 217 220 336 307 290z m537 -516 c40 -28 70 -88 75 -148 5 -67 -7 -73
-25 -12 -16 55 -66 110 -112 126 -36 11 -48 34 -23 43 25 11 63 7 85 -9z m72
-259 c0 -19 -4 -35 -8 -35 -4 0 -6 16 -4 35 2 19 6 35 8 35 2 0 4 -16 4 -35z"/>
</g>
</svg>
